<?xml version="1.0" encoding="UTF-8"?>
<svg width="14px" height="14px" viewBox="0 0 14 14" version="1.1" xmlns="http://www.w3.org/2000/svg" xmlns:xlink="http://www.w3.org/1999/xlink">
    <!-- Generator: Sketch 42 (36781) - http://www.bohemiancoding.com/sketch -->
    <title>icon</title>
    <desc>Created with Sketch.</desc>
    <defs></defs>
    <g id="Page-1" stroke="none" stroke-width="1" fill="none" fill-rule="evenodd">
        <g id="Cart---Step-1" transform="translate(-1099.000000, -22.000000)" fill="#6164C1">
            <g id="header">
                <g id="new-booking" transform="translate(1081.000000, 0.000000)">
                    <g id="icon" transform="translate(18.000000, 22.000000)">
                        <path d="M7.46142578,7.46142578 L10.0636153,7.46142578 C10.3046239,7.46142578 10.5,7.25848389 10.5,7.02392578 C10.5,6.7823012 10.3036537,6.58642578 10.0564446,6.58642578 L7.46142578,6.58642578 L7.46142578,4.59871674 L7.46142578,3.96108441 C7.46142578,3.71964836 7.25848389,3.52392578 7.02392578,3.52392578 C6.7823012,3.52392578 6.58642578,3.72518274 6.58642578,3.96031047 L6.58642578,6.58642578 L4.59871674,6.58642578 L3.96108441,6.58642578 C3.71964836,6.58642578 3.52392578,6.78936768 3.52392578,7.02392578 C3.52392578,7.26555036 3.72518274,7.46142578 3.96031047,7.46142578 L6.58642578,7.46142578 L6.58642578,10.0636153 C6.58642578,10.3046239 6.78936768,10.5 7.02392578,10.5 C7.26555036,10.5 7.46142578,10.3036537 7.46142578,10.0564446 L7.46142578,7.46142578 Z" id="Rectangle-348" transform="translate(7.011963, 7.011963) rotate(-180.000000) translate(-7.011963, -7.011963) "></path>
                        <path d="M14,7 C14,10.8659932 10.8659932,14 7,14 C3.13400675,14 0,10.8659932 0,7 C0,3.13400675 3.13400675,0 7,0 C10.8659932,0 14,3.13400675 14,7 Z M0.875,7 C0.875,10.3827441 3.61725591,13.125 7,13.125 C10.3827441,13.125 13.125,10.3827441 13.125,7 C13.125,3.61725591 10.3827441,0.875 7,0.875 C3.61725591,0.875 0.875,3.61725591 0.875,7 Z" id="Oval-1" fill-rule="nonzero"></path>
                    </g>
                </g>
            </g>
        </g>
    </g>
</svg>