<?xml version="1.0" encoding="UTF-8"?>
<svg width="24px" height="24px" viewBox="0 0 24 24" version="1.1" xmlns="http://www.w3.org/2000/svg" xmlns:xlink="http://www.w3.org/1999/xlink">
    <!-- Generator: Sketch 42 (36781) - http://www.bohemiancoding.com/sketch -->
    <title>Group</title>
    <desc>Created with Sketch.</desc>
    <defs></defs>
    <g id="Page-1" stroke="none" stroke-width="1" fill="none" fill-rule="evenodd">
        <g id="Cart---Step-1" transform="translate(-345.000000, -469.000000)" fill="#FAA96A">
            <g id="flight" transform="translate(298.000000, 279.000000)">
                <g id="selected-passengers" transform="translate(40.000000, 147.000000)">
                    <g id="Group-2" transform="translate(0.000000, 37.000000)">
                        <g id="male-2" transform="translate(7.000000, 1.000000)">
                            <g id="Group" transform="translate(0.000000, 5.000000)">
                                <path d="M12,17 C9.537,17 7.349,15.01 6.441,11.999 C5.616,11.951 5,10.893 5,9.5 C5,9.104 5.052,8.715 5.152,8.368 C5.048,7.865 5,7.428 5,7 C5,3.14 8.14,0 12,0 C15.86,0 19,3.14 19,7 C19,7.428 18.952,7.865 18.848,8.368 C18.948,8.715 19,9.104 19,9.5 C19,10.893 18.384,11.951 17.559,11.999 C16.651,15.01 14.463,17 12,17 L12,17 Z M6.793,10.917 C6.854,10.917 6.913,10.928 6.968,10.95 C7.116,11.01 7.242,11.126 7.281,11.281 C7.981,14.104 9.877,16 12,16 C14.123,16 16.019,14.104 16.719,11.281 C16.758,11.126 16.868,10.998 17.016,10.938 C17.164,10.878 17.333,10.893 17.468,10.977 C17.64,10.999 18,10.467 18,9.5 C18,9.158 17.951,8.829 17.857,8.549 C17.828,8.464 17.823,8.372 17.843,8.283 C17.95,7.798 18,7.39 18,7 C18,3.691 15.309,1 12,1 C8.691,1 6,3.691 6,7 C6,7.39 6.05,7.798 6.157,8.284 C6.177,8.372 6.172,8.464 6.143,8.55 C6.049,8.829 6,9.158 6,9.5 C6,10.468 6.375,11 6.5,11 C6.585,10.947 6.69,10.917 6.793,10.917 L6.793,10.917 Z" id="Shape"></path>
                                <path d="M23.5,24 L0.5,24 C0.224,24 0,23.776 0,23.5 L0,22.766 C0,20.002 1.754,17.535 4.365,16.627 L6.937,15.732 C7.125,15.667 7.335,15.72 7.47,15.866 C8.731,17.242 10.34,18 12,18 C13.66,18 15.269,17.242 16.53,15.866 C16.666,15.72 16.875,15.667 17.063,15.732 L19.635,16.627 L19.635,16.627 C22.246,17.534 24,20.001 24,22.766 L24,23.5 C24,23.776 23.776,24 23.5,24 L23.5,24 Z M1,23 L23,23 L23,22.766 C23,20.427 21.516,18.339 19.307,17.571 L17.039,16.782 C15.621,18.215 13.843,19 12,19 C10.157,19 8.379,18.215 6.961,16.782 L4.693,17.571 C2.484,18.339 1,20.427 1,22.766 L1,23 L1,23 Z" id="Shape"></path>
                                <path d="M17,9 C16.804,9 16.624,8.885 16.543,8.703 C16.524,8.661 16.156,7.825 16.037,6.985 C13.94,6.849 11.77,5.822 10.693,4.757 C10.602,4.916 10.49,5.061 10.359,5.192 C9.556,5.99 8.276,5.996 7.631,6 C7.485,6.335 7.423,7.423 7.499,8.464 C7.51,8.615 7.452,8.764 7.34,8.867 C7.228,8.97 7.075,9.017 6.925,8.994 C6.918,8.993 6.235,8.891 5.668,8.891 C5.392,8.891 5.168,8.667 5.168,8.391 C5.168,8.115 5.392,7.891 5.668,7.891 C5.939,7.891 6.226,7.911 6.469,7.933 C6.441,7.029 6.487,5.736 6.934,5.255 C7.118,5.057 7.357,5 7.638,5 C8.24,5 9.166,4.969 9.653,4.483 C9.887,4.251 10,3.929 10,3.5 C10,3.224 10.224,3 10.5,3 C10.776,3 11,3.224 11,3.5 C11.058,4.002 13.565,6 16.5,6 C16.776,6 17,6.224 17,6.5 C17,6.994 17.193,7.604 17.328,7.972 L18.291,7.893 C18.561,7.88 18.808,8.075 18.83,8.351 C18.852,8.626 18.647,8.867 18.372,8.89 L17.04,8.999 C17.027,9 17.013,9 17,9 L17,9 Z" id="Shape"></path>
                                <path d="M10.5,10 L9.5,10 C9.224,10 9,9.776 9,9.5 C9,9.224 9.224,9 9.5,9 L10.5,9 C10.776,9 11,9.224 11,9.5 C11,9.776 10.776,10 10.5,10 L10.5,10 Z" id="Shape"></path>
                                <path d="M14.5,10 L13.5,10 C13.224,10 13,9.776 13,9.5 C13,9.224 13.224,9 13.5,9 L14.5,9 C14.776,9 15,9.224 15,9.5 C15,9.776 14.776,10 14.5,10 L14.5,10 Z" id="Shape"></path>
                            </g>
                        </g>
                    </g>
                </g>
            </g>
        </g>
    </g>
</svg>