<?xml version="1.0" encoding="UTF-8"?>
<svg width="15px" height="15px" viewBox="0 0 15 15" version="1.1" xmlns="http://www.w3.org/2000/svg" xmlns:xlink="http://www.w3.org/1999/xlink">
    <!-- Generator: Sketch 42 (36781) - http://www.bohemiancoding.com/sketch -->
    <title>XMLID_69_</title>
    <desc>Created with Sketch.</desc>
    <defs></defs>
    <g id="Page-1" stroke="none" stroke-width="1" fill="none" fill-rule="evenodd">
        <g id="Cart---Step-1" transform="translate(-949.000000, -21.000000)" fill="#43425C">
            <g id="header">
                <g id="support" transform="translate(949.000000, 19.000000)">
                    <g id="icon">
                        <g id="XMLID_69_" transform="translate(0.000000, 1.800000)">
                            <g id="XMLID_70_">
                                <path d="M13.68,14.7 C6.42,14.7 0.3,8.58 0.3,1.38 C0.3,0.78 0.78,0.3 1.38,0.3 L4.08,0.3 C4.68,0.3 5.16,0.78 5.16,1.38 C5.16,2.1 5.34,3.06 5.7,4.14 C5.82,4.5 5.7,4.92 5.46,5.22 L4.02,6.72 C5.04,8.58 6.24,9.78 8.1,10.8 L9.78,9.6 C10.02,9.36 10.44,9.24 10.8,9.36 C11.58,9.6 12.78,9.9 13.68,9.9 C14.28,9.9 14.76,10.38 14.76,10.98 L14.76,13.68 C14.7,14.22 14.22,14.7 13.68,14.7 L13.68,14.7 Z M1.38,0.9 C1.14,0.9 0.9,1.08 0.9,1.38 C0.9,8.28 6.72,14.16 13.68,14.16 C13.92,14.16 14.16,13.98 14.16,13.68 L14.16,10.98 C14.16,10.74 13.98,10.5 13.68,10.5 C12.72,10.5 11.46,10.2 10.62,9.9 C10.44,9.84 10.26,9.9 10.14,10.02 L8.28,11.34 C8.16,11.4 8.04,11.4 7.98,11.34 C5.82,10.2 4.44,8.88 3.36,6.72 C3.3,6.6 3.3,6.48 3.42,6.36 L4.98,4.74 C5.1,4.62 5.16,4.44 5.1,4.26 C4.74,3.12 4.5,2.1 4.5,1.32 C4.5,1.08 4.32,0.84 4.02,0.84 C4.02,0.9 1.38,0.9 1.38,0.9 L1.38,0.9 Z" id="Shape"></path>
                            </g>
                        </g>
                    </g>
                </g>
            </g>
        </g>
    </g>
</svg>