<?xml version="1.0" encoding="UTF-8"?>
<svg width="24px" height="22px" viewBox="0 0 24 22" version="1.1" xmlns="http://www.w3.org/2000/svg" xmlns:xlink="http://www.w3.org/1999/xlink">
    <!-- Generator: Sketch 42 (36781) - http://www.bohemiancoding.com/sketch -->
    <title>Layer_1</title>
    <desc>Created with Sketch.</desc>
    <defs></defs>
    <g id="Page-1" stroke="none" stroke-width="1" fill="none" fill-rule="evenodd">
        <g id="Cart---Step-1" transform="translate(-1234.000000, -19.000000)" fill="#43425C">
            <g id="header">
                <g id="cart-1-1" transform="translate(1234.000000, 19.000000)">
                    <g id="Layer_1">
                        <g id="Group">
                            <g id="Shape">
                                <path d="M19,22 C17.622,22 16.5,20.878 16.5,19.5 C16.5,18.122 17.622,17 19,17 C20.378,17 21.5,18.122 21.5,19.5 C21.5,20.878 20.378,22 19,22 Z M19,18 C18.173,18 17.5,18.673 17.5,19.5 C17.5,20.327 18.173,21 19,21 C19.827,21 20.5,20.327 20.5,19.5 C20.5,18.673 19.827,18 19,18 Z"></path>
                                <path d="M9,22 C7.622,22 6.5,20.878 6.5,19.5 C6.5,18.122 7.622,17 9,17 C10.378,17 11.5,18.122 11.5,19.5 C11.5,20.878 10.378,22 9,22 Z M9,18 C8.173,18 7.5,18.673 7.5,19.5 C7.5,20.327 8.173,21 9,21 C9.827,21 10.5,20.327 10.5,19.5 C10.5,18.673 9.827,18 9,18 Z"></path>
                                <path d="M21,16 L9.459,16 C7.797,16 6.353,14.817 6.027,13.187 L3.59,1 L1,1 C0.724,1 0.5,0.776 0.5,0.5 C0.5,0.224 0.724,0 1,0 L4,0 C4.238,0 4.443,0.168 4.49,0.402 L7.008,12.99 C7.241,14.155 8.272,15 9.459,15 L21,15 C21.276,15 21.5,15.224 21.5,15.5 C21.5,15.776 21.276,16 21,16 Z"></path>
                                <path d="M6.999,14 C6.752,14 6.538,13.817 6.504,13.566 C6.467,13.293 6.66,13.041 6.934,13.004 L21.552,11.055 L22.434,4 L5,4 C4.724,4 4.5,3.776 4.5,3.5 C4.5,3.224 4.724,3 5,3 L23,3 C23.144,3 23.28,3.062 23.375,3.169 C23.47,3.276 23.514,3.42 23.496,3.562 L22.496,11.562 C22.468,11.788 22.291,11.966 22.066,11.996 L7.066,13.996 C7.043,13.999 7.021,14 6.999,14 Z"></path>
                            </g>
                            <path d="M8.999,12 C8.759,12 8.547,11.827 8.506,11.582 L7.506,5.582 C7.461,5.31 7.645,5.052 7.918,5.007 C8.19,4.96 8.448,5.146 8.493,5.418 L9.493,11.418 C9.538,11.69 9.354,11.948 9.082,11.993 C9.054,11.998 9.027,12 8.999,12 Z" id="Shape"></path>
                            <path d="M11.499,11.5 C11.243,11.5 11.025,11.305 11.001,11.045 L10.501,5.545 C10.476,5.27 10.679,5.026 10.954,5.002 C11.237,4.975 11.472,5.18 11.497,5.455 L11.997,10.955 C12.022,11.23 11.819,11.474 11.544,11.498 C11.53,11.5 11.515,11.5 11.499,11.5 Z" id="Shape"></path>
                            <path d="M14,11 C13.724,11 13.5,10.776 13.5,10.5 L13.5,5.5 C13.5,5.224 13.724,5 14,5 C14.276,5 14.5,5.224 14.5,5.5 L14.5,10.5 C14.5,10.776 14.276,11 14,11 Z" id="Shape"></path>
                            <path d="M16.5,10.5 C16.481,10.5 16.463,10.499 16.444,10.497 C16.17,10.466 15.972,10.219 16.002,9.945 L16.502,5.445 C16.533,5.171 16.79,4.977 17.054,5.003 C17.328,5.034 17.526,5.281 17.496,5.555 L16.996,10.055 C16.969,10.311 16.752,10.5 16.5,10.5 Z" id="Shape"></path>
                            <path d="M19,10 C18.96,10 18.919,9.995 18.878,9.985 C18.61,9.918 18.447,9.647 18.514,9.379 L19.514,5.379 C19.581,5.11 19.85,4.946 20.12,5.015 C20.388,5.082 20.551,5.353 20.484,5.621 L19.484,9.621 C19.428,9.849 19.225,10 19,10 Z" id="Shape"></path>
                        </g>
                    </g>
                </g>
            </g>
        </g>
    </g>
</svg>