<?xml version="1.0" encoding="UTF-8"?>
<svg width="24px" height="24px" viewBox="0 0 24 24" version="1.1" xmlns="http://www.w3.org/2000/svg" xmlns:xlink="http://www.w3.org/1999/xlink">
    <!-- Generator: Sketch 42 (36781) - http://www.bohemiancoding.com/sketch -->
    <title>edit doc 2</title>
    <desc>Created with Sketch.</desc>
    <defs></defs>
    <g id="Page-1" stroke="none" stroke-width="1" fill="none" fill-rule="evenodd">
        <g id="Cart---Step-1" transform="translate(-630.000000, -156.000000)" fill="#92959D">
            <g id="step" transform="translate(0.000000, 110.000000)">
                <g id="Group-7" transform="translate(527.000000, 17.000000)">
                    <g id="edit-doc-2" transform="translate(103.000000, 29.000000)">
                        <g id="Layer_1">
                            <path d="M11.5,22 L0.5,22 C0.2,22 0,21.8 0,21.5 L0,6.5 C0,6.4 0.1,6.2 0.1,6.1 L6.1,0.1 C6.2,0.1 6.4,0 6.5,0 L17.5,0 C17.8,0 18,0.2 18,0.5 L18,14.5 C18,14.8 17.8,15 17.5,15 C17.2,15 17,14.8 17,14.5 L17,1 L6.7,1 L1,6.7 L1,21 L11.5,21 C11.8,21 12,21.2 12,21.5 C12,21.8 11.8,22 11.5,22 Z" id="Shape" fill-rule="nonzero"></path>
                            <path d="M6.5,7 L0.5,7 C0.2,7 0,6.8 0,6.5 C0,6.2 0.2,6 0.5,6 L6,6 L6,0.5 C6,0.2 6.2,0 6.5,0 C6.8,0 7,0.2 7,0.5 L7,6.5 C7,6.8 6.8,7 6.5,7 Z" id="Shape" fill-rule="nonzero"></path>
                            <path d="M15.5,24 L13.5,24 C13.2,24 13,23.8 13,23.5 L13,21.5 C13,21.4 13.1,21.2 13.1,21.1 L21.1,13.1 C21.3,12.9 21.6,12.9 21.8,13.1 L23.8,15.1 C24,15.3 24,15.6 23.8,15.8 L15.8,23.8 C15.8,23.9 15.6,24 15.5,24 Z M14,23 L15.3,23 L22.8,15.5 L21.5,14.2 L14,21.7 L14,23 Z" id="Shape" fill-rule="nonzero"></path>
                            <path d="M21.5,18 C21.4,18 21.2,18 21.1,17.9 L19.1,15.9 C18.9,15.7 18.9,15.4 19.1,15.2 C19.3,15 19.6,15 19.8,15.2 L21.8,17.2 C22,17.4 22,17.7 21.8,17.9 C21.8,18 21.6,18 21.5,18 Z" id="Shape" fill-rule="nonzero"></path>
                            <rect id="Rectangle-3" x="4" y="17" width="7" height="1"></rect>
                            <rect id="Rectangle-3-Copy" x="4" y="14" width="10.4509888" height="1"></rect>
                            <rect id="Rectangle-3-Copy-2" x="4" y="11" width="10.4509888" height="1"></rect>
                            <rect id="Rectangle-3-Copy-3" x="4" y="8" width="10.4509888" height="1"></rect>
                            <rect id="Rectangle-3-Copy-4" x="8" y="5" width="6.45098877" height="1"></rect>
                        </g>
                    </g>
                </g>
            </g>
        </g>
    </g>
</svg>