<?xml version="1.0" encoding="UTF-8"?>
<svg width="14px" height="14px" viewBox="0 0 14 14" version="1.1" xmlns="http://www.w3.org/2000/svg" xmlns:xlink="http://www.w3.org/1999/xlink">
    <!-- Generator: Sketch 42 (36781) - http://www.bohemiancoding.com/sketch -->
    <title>edit</title>
    <desc>Created with Sketch.</desc>
    <defs></defs>
    <g id="Page-1" stroke="none" stroke-width="1" fill="none" fill-rule="evenodd">
        <g id="Cart---Step-1" transform="translate(-928.000000, -479.000000)" fill="#92959D">
            <g id="flight" transform="translate(298.000000, 279.000000)">
                <g id="selected-passengers" transform="translate(40.000000, 147.000000)">
                    <g id="Group-2" transform="translate(0.000000, 37.000000)">
                        <g id="male-2" transform="translate(7.000000, 1.000000)">
                            <g id="edit" transform="translate(583.000000, 15.000000)">
                                <path d="M13.4352941,12.9589744 L0.564705882,12.9589744 C0.294117647,12.9589744 0.0823529412,13.1863248 0.0823529412,13.4495726 C0.0823529412,13.7128205 0.305882353,13.9401709 0.564705882,13.9401709 L13.4470588,13.9401709 C13.7176471,13.9401709 13.9294118,13.7128205 13.9294118,13.4495726 C13.9294118,13.1863248 13.7058824,12.9589744 13.4352941,12.9589744 L13.4352941,12.9589744 Z" id="Shape"></path>
                                <path d="M0.0823529412,8.61538462 L0.0705882353,10.9487179 C0.0705882353,11.0803419 0.117647059,11.2119658 0.211764706,11.3076923 C0.305882353,11.4034188 0.423529412,11.4512821 0.552941176,11.4512821 L2.83529412,11.4393162 C2.96470588,11.4393162 3.08235294,11.391453 3.17647059,11.2957265 L11.0588235,3.27863248 C11.2470588,3.08717949 11.2470588,2.77606838 11.0588235,2.57264957 L8.8,0.251282051 C8.61176471,0.0598290598 8.30588235,0.0598290598 8.10588235,0.251282051 L6.52941176,1.86666667 L0.223529412,8.26837607 C0.141176471,8.36410256 0.0823529412,8.48376068 0.0823529412,8.61538462 L0.0823529412,8.61538462 Z M8.45882353,1.3042735 L10.0470588,2.91965812 L9.15294118,3.82905983 L7.56470588,2.21367521 L8.45882353,1.3042735 L8.45882353,1.3042735 Z M1.05882353,8.83076923 L6.87058824,2.91965812 L8.45882353,4.53504274 L2.64705882,10.434188 L1.04705882,10.4461538 L1.05882353,8.83076923 L1.05882353,8.83076923 Z" id="Shape"></path>
                            </g>
                        </g>
                    </g>
                </g>
            </g>
        </g>
    </g>
</svg>