<?xml version="1.0" encoding="UTF-8"?>
<svg width="25px" height="25px" viewBox="0 0 25 25" version="1.1" xmlns="http://www.w3.org/2000/svg" xmlns:xlink="http://www.w3.org/1999/xlink">
    <!-- Generator: Sketch 42 (36781) - http://www.bohemiancoding.com/sketch -->
    <title>female</title>
    <desc>Created with Sketch.</desc>
    <defs></defs>
    <g id="Page-1" stroke="none" stroke-width="1" fill="none" fill-rule="evenodd">
        <g id="Cart---Step-1" transform="translate(-344.000000, -530.000000)" fill="#F58EBC">
            <g id="flight" transform="translate(298.000000, 279.000000)">
                <g id="selected-passengers" transform="translate(40.000000, 147.000000)">
                    <g id="Group-2-Copy" transform="translate(0.000000, 98.000000)">
                        <g id="female" transform="translate(6.000000, 6.000000)">
                            <g id="Group">
                                <g id="Shape">
                                    <path d="M12.4166667,17.5 C9.91666667,17.5 7.58333333,15.4166667 6.66666667,12.25 L6.66666667,12.25 C5.83333333,12.25 5.16666667,11.1666667 5.16666667,9.75 C5.16666667,9.66666667 5.08333333,9.5 5.08333333,9.41666667 C5,9.25 4.91666667,9 5,8.75 C4.91666667,8.41666667 5,8 5,7.58333333 L5,7.08333333 C5,3.16666667 8.33333333,0 12.4166667,0 C16.5,0 20,3.25 20,7.08333333 C20,7.5 19.9166667,8 19.8333333,8.5 C19.9166667,8.83333333 20,9.25 20,9.66666667 C20,11.1666667 19.4166667,12.1666667 18.6666667,12.1666667 L18.6666667,12.1666667 C17.6666667,15.1666667 15,17.5 12.4166667,17.5 L12.4166667,17.5 Z M7,11.3333333 L7.16666667,11.3333333 C7.25,11.4166667 7.41666667,11.5 7.41666667,11.5833333 C8.16666667,14.5833333 10.1666667,16.5833333 12.4166667,16.5833333 C14.8333333,16.5833333 17.25,14.3333333 17.9166667,11.5 C17.9166667,11.3333333 18,11.25 18.1666667,11.25 C18.25,11.1666667 18.4166667,11.25 18.5833333,11.25 L18.6666667,11.25 C18.8333333,11.25 19.1666667,10.6666667 19.1666667,9.58333333 C19.1666667,9.25 19.0833333,8.83333333 19,8.58333333 L19,8.33333333 C19.0833333,7.91666667 19.1666667,7.5 19.1666667,7.08333333 C19.1666667,3.66666667 16.0833333,0.833333333 12.4166667,0.833333333 C8.75,0.833333333 5.83333333,3.66666667 5.83333333,7.08333333 L5.83333333,7.66666667 C5.83333333,8 5.75,8.41666667 5.83333333,8.66666667 L5.83333333,8.91666667 C5.83333333,8.91666667 5.83333333,9.08333333 5.91666667,9.16666667 C6,9.33333333 6.08333333,9.58333333 6.08333333,9.83333333 C6.08333333,10.8333333 6.5,11.5 6.75,11.5 L6.83333333,11.5 C6.83333333,11.4166667 6.91666667,11.3333333 7,11.3333333 L7,11.3333333 Z"></path>
                                    <path d="M24.5833333,25 L0.416666667,25 C0.166666667,25 0,24.8333333 0,24.5833333 L0,23.8333333 C0,21.25 1.58333333,17.9166667 4.41666667,16.9166667 L7.08333333,16 C7.25,15.9166667 7.41666667,16 7.5,16.0833333 C8.83333333,17.5 10.5,18.3333333 12.3333333,18.3333333 C14.1666667,18.3333333 15.8333333,17.5 17.1666667,16.0833333 C17.25,16 17.4166667,15.9166667 17.5833333,16 L20.25,16.9166667 C22.8333333,17.8333333 25,20.9166667 25,23.8333333 L25,24.5833333 C25,24.8333333 24.8333333,25 24.5833333,25 L24.5833333,25 Z M0.833333333,24.1666667 L24.1666667,24.1666667 L24.1666667,23.8333333 C24.1666667,21.25 22.3333333,18.5 20,17.6666667 L20,17.6666667 L17.5833333,16.8333333 C16.0833333,18.3333333 14.25,19.1666667 12.3333333,19.1666667 C10.4166667,19.1666667 8.58333333,18.3333333 7.08333333,16.8333333 L4.66666667,17.6666667 C2.25,18.5 0.75,21.4166667 0.75,23.8333333 C0.833333333,23.8333333 0.833333333,24.1666667 0.833333333,24.1666667 L0.833333333,24.1666667 Z"></path>
                                    <path d="M5.41666667,9.16666667 C5.25,9.16666667 5.08333333,9.08333333 5,8.91666667 C4.91666667,8.66666667 5,8.5 5.25,8.41666667 C5.25,8.41666667 9.16666667,7 9.16666667,3.83333333 C9.16666667,3.5 9.33333333,3.33333333 9.58333333,3.33333333 C9.83333333,3.33333333 10,3.5 10,3.75 C10.1666667,4.58333333 15.25,8.33333333 19.5833333,8.33333333 C19.8333333,8.33333333 20,8.5 20,8.75 C20,9 19.8333333,9.16666667 19.5833333,9.16666667 C16,9.16666667 11.5833333,6.66666667 9.83333333,4.91666667 C9.08333333,7.83333333 5.66666667,9.08333333 5.5,9.16666667 L5.41666667,9.16666667 L5.41666667,9.16666667 Z"></path>
                                    <path d="M10.4166667,10 L9.58333333,10 C9.33333333,10 9.16666667,9.83333333 9.16666667,9.58333333 C9.16666667,9.33333333 9.33333333,9.16666667 9.58333333,9.16666667 L10.4166667,9.16666667 C10.6666667,9.16666667 10.8333333,9.33333333 10.8333333,9.58333333 C10.8333333,9.83333333 10.6666667,10 10.4166667,10 L10.4166667,10 Z"></path>
                                    <path d="M15.4166667,10 L14.5833333,10 C14.3333333,10 14.1666667,9.83333333 14.1666667,9.58333333 C14.1666667,9.33333333 14.3333333,9.16666667 14.5833333,9.16666667 L15.4166667,9.16666667 C15.6666667,9.16666667 15.8333333,9.33333333 15.8333333,9.58333333 C15.8333333,9.83333333 15.6666667,10 15.4166667,10 L15.4166667,10 Z"></path>
                                </g>
                                <path d="M8.75,15.9166667 C8.75,15.9166667 8.66666667,15.9166667 8.75,15.9166667 C8.25,15.8333333 4.58333333,15.1666667 3.41666667,14 C3.25,13.8333333 3.25,13.5833333 3.41666667,13.4166667 C4.5,12.4166667 5,8.75 5,7.08333333 C5,6.83333333 5.16666667,6.66666667 5.41666667,6.66666667 C5.66666667,6.66666667 5.83333333,6.83333333 5.83333333,7.08333333 C5.83333333,8.33333333 5.5,12.0833333 4.33333333,13.6666667 C5.41666667,14.3333333 7.83333333,14.9166667 8.83333333,15.0833333 C9.08333333,15.0833333 9.25,15.3333333 9.16666667,15.5833333 C9.08333333,15.8333333 8.91666667,15.9166667 8.75,15.9166667 L8.75,15.9166667 Z" id="Shape"></path>
                                <path d="M16,15.9166667 C15.8333333,15.9166667 15.6666667,15.75 15.5833333,15.5833333 C15.5833333,15.3333333 15.6666667,15.1666667 15.9166667,15.0833333 C16.9166667,14.9166667 19.5,14.3333333 20.5833333,13.6666667 C19.4166667,12 19.0833333,8.33333333 19.0833333,7.08333333 C19.1666667,6.83333333 19.3333333,6.66666667 19.5833333,6.66666667 C19.8333333,6.66666667 20,6.83333333 20,7.08333333 C20,8.75 20.5,12.4166667 21.5833333,13.4166667 C21.75,13.5833333 21.75,13.8333333 21.5833333,14 C20.4166667,15.1666667 16.5833333,15.8333333 16,15.9166667 L16,15.9166667 L16,15.9166667 Z" id="Shape"></path>
                            </g>
                        </g>
                    </g>
                </g>
            </g>
        </g>
    </g>
</svg>