<?xml version="1.0" encoding="UTF-8"?>
<svg width="18px" height="16px" viewBox="0 0 18 16" version="1.1" xmlns="http://www.w3.org/2000/svg" xmlns:xlink="http://www.w3.org/1999/xlink">
    <!-- Generator: Sketch 42 (36781) - http://www.bohemiancoding.com/sketch -->
    <title>icon-landing</title>
    <desc>Created with Sketch.</desc>
    <defs></defs>
    <g id="Page-1" stroke="none" stroke-width="1" fill="none" fill-rule="evenodd">
        <g id="Cart---Step-1" transform="translate(-600.000000, -334.000000)" fill="#373A3C">
            <g id="flight" transform="translate(298.000000, 279.000000)">
                <g id="Group-3" transform="translate(38.000000, 33.000000)">
                    <g id="one-way">
                        <g id="leg-1" transform="translate(88.000000, 0.000000)">
                            <g id="details" transform="translate(0.000000, 22.000000)">
                                <g id="arrive" transform="translate(176.000000, 0.000000)">
                                    <g id="icon-landing">
                                        <path d="M12,5.81818182 C11.8625455,5.81818182 11.7309091,5.74036364 11.6690909,5.60654545 L9.61454545,1.15272727 L8.75709091,1.36727273 L9.08945455,4.69090909 C9.10909091,4.89090909 8.96363636,5.06909091 8.76363636,5.08872727 C8.56290909,5.10836364 8.38545455,4.96290909 8.36581818,4.76290909 L8.00218182,1.12654545 C7.98472727,0.946909091 8.10109091,0.781090909 8.27563636,0.737454545 L9.73018182,0.373818182 C9.90109091,0.332363636 10.0749091,0.416 10.1483636,0.573818182 L12.3301818,5.30109091 C12.4145455,5.48290909 12.3345455,5.69963636 12.152,5.784 C12.1032727,5.80727273 12.0509091,5.81818182 12,5.81818182 L12,5.81818182 Z" id="Shape"></path>
                                        <path d="M14.1818182,8.36363636 C13.9810909,8.36363636 13.8181818,8.20072727 13.8181818,8 C13.8181818,7.79927273 13.9810909,7.63636364 14.1818182,7.63636364 C15.3018182,7.63636364 15.6356364,7.47127273 15.6989091,7.43272727 C15.7869091,7.30327273 15.9527273,7.24 16.1083636,7.28945455 C16.3003636,7.34909091 16.4072727,7.55345455 16.3469091,7.74472727 C16.2189091,8.15563636 15.4901818,8.36363636 14.1818182,8.36363636 L14.1818182,8.36363636 Z" id="Shape"></path>
                                        <path d="M9.81818182,14.1818182 C9.79418182,14.1818182 9.77090909,14.1796364 9.74618182,14.1745455 L7.928,13.8109091 C7.74254545,13.7738182 7.616,13.6 7.63854545,13.4116364 L8.36581818,7.22981818 C8.38763636,7.04727273 8.54327273,6.90909091 8.72727273,6.90909091 C9.80290909,6.90909091 12.0181818,7.62327273 12.112,7.65381818 C12.2065455,7.68436364 12.2843636,7.752 12.3272727,7.84145455 C12.3709091,7.93090909 12.3752727,8.03418182 12.3403636,8.12727273 L10.1585455,13.9454545 C10.1047273,14.0894545 9.96727273,14.1818182 9.81818182,14.1818182 L9.81818182,14.1818182 Z M8.4,13.1636364 L9.58618182,13.4007273 L11.5243636,8.23345455 C10.9476364,8.05963636 9.81163636,7.73818182 9.04872727,7.656 L8.4,13.1636364 L8.4,13.1636364 Z" id="Shape"></path>
                                        <path d="M15.7890909,10.4094545 C14.8858182,10.4094545 13.5490909,10.2130909 11.6130909,9.81236364 C11.416,9.77163636 11.2901818,9.57890909 11.3309091,9.38254545 C11.3723636,9.18545455 11.5643636,9.05890909 11.7607273,9.10036364 C14.6443636,9.69818182 16.3047273,9.84145455 16.6930909,9.52509091 C16.7207273,9.50254545 16.7272727,9.48872727 16.7272727,9.45454545 C16.7272727,7.68363636 13.8683636,6.41018182 11.1927273,5.80945455 C8.224,5.09527273 4.72436364,4.72945455 4.69018182,4.72581818 C4.56654545,4.71272727 4.45745455,4.63709091 4.40218182,4.52581818 L3.07781818,1.87781818 L2.18181818,2.10181818 L2.18181818,4.36363636 C2.18181818,4.48218182 2.12436364,4.59272727 2.02763636,4.66036364 C1.93163636,4.72945455 1.80727273,4.74618182 1.696,4.70545455 C1.36290909,4.58690909 0.896,4.52363636 0.757090909,4.62036364 C0.749090909,4.62618182 0.727272727,4.64218182 0.727272727,4.72727273 C0.736,4.81745455 0.966545455,5.18981818 1.91854545,5.80290909 C2.05818182,5.89309091 2.11854545,6.06618182 2.06618182,6.224 L1.59563636,7.63636364 L2.68436364,7.63636364 L3.07054545,6.86327273 C3.15927273,6.68654545 3.37236364,6.61236364 3.552,6.69745455 C5.03272727,7.40290909 6.77018182,7.99709091 8.44290909,8.37236364 C8.63927273,8.416 8.76218182,8.61090909 8.71781818,8.80654545 C8.67418182,9.00218182 8.48145455,9.128 8.28363636,9.08145455 C6.28218182,8.63272727 4.65527273,8.00218182 3.56290909,7.50472727 L3.23418182,8.16218182 C3.17236364,8.28581818 3.04654545,8.36363636 2.90909091,8.36363636 L1.09090909,8.36363636 C0.973818182,8.36363636 0.864,8.30763636 0.795636364,8.21236364 C0.727272727,8.11781818 0.708363636,7.99563636 0.746181818,7.88436364 L1.28872727,6.25745455 C0,5.37527273 0,4.89163636 0,4.72727273 C0,4.34472727 0.184,4.13454545 0.338909091,4.02618182 C0.652363636,3.80581818 1.10545455,3.82618182 1.45454545,3.89090909 L1.45454545,1.81818182 C1.45454545,1.65090909 1.568,1.50618182 1.73018182,1.46545455 L3.18472727,1.10181818 C3.34981818,1.05963636 3.52145455,1.13963636 3.59781818,1.29163636 L4.96363636,4.02327273 C5.75490909,4.11272727 8.75563636,4.47490909 11.3578182,5.10036364 C12.784,5.42109091 17.4545455,6.68581818 17.4545455,9.45454545 C17.4545455,9.70909091 17.3498182,9.928 17.1527273,10.0894545 C16.8916364,10.3018182 16.4596364,10.4094545 15.7890909,10.4094545 L15.7890909,10.4094545 Z" id="Shape"></path>
                                        <path d="M8.36363636,15.6363636 L0.363636364,15.6363636 C0.162909091,15.6363636 0,15.4734545 0,15.2727273 C0,15.072 0.162909091,14.9090909 0.363636364,14.9090909 L8.36363636,14.9090909 C8.56436364,14.9090909 8.72727273,15.072 8.72727273,15.2727273 C8.72727273,15.4734545 8.56436364,15.6363636 8.36363636,15.6363636 L8.36363636,15.6363636 Z" id="Shape"></path>
                                    </g>
                                </g>
                            </g>
                        </g>
                    </g>
                </g>
            </g>
        </g>
    </g>
</svg>