<?xml version="1.0" encoding="UTF-8"?>
<svg width="15px" height="15px" viewBox="0 0 15 15" version="1.1" xmlns="http://www.w3.org/2000/svg" xmlns:xlink="http://www.w3.org/1999/xlink">
    <!-- Generator: Sketch 42 (36781) - http://www.bohemiancoding.com/sketch -->
    <title>icon-duration</title>
    <desc>Created with Sketch.</desc>
    <defs></defs>
    <g id="Page-1" stroke="none" stroke-width="1" fill="none" fill-rule="evenodd">
        <g id="Cart---Step-1" transform="translate(-776.000000, -334.000000)" fill="#373A3C">
            <g id="flight" transform="translate(298.000000, 279.000000)">
                <g id="Group-3" transform="translate(38.000000, 33.000000)">
                    <g id="one-way">
                        <g id="leg-1" transform="translate(88.000000, 0.000000)">
                            <g id="details" transform="translate(0.000000, 22.000000)">
                                <g id="duration" transform="translate(352.000000, 0.000000)">
                                    <g id="icon-duration">
                                        <path d="M7.5,14.75 C3.5,14.75 0.25,11.5 0.25,7.5 C0.25,3.5 3.5,0.25 7.5,0.25 C11.5,0.25 14.75,3.5 14.75,7.5 C14.75,11.5 11.5,14.75 7.5,14.75 L7.5,14.75 Z M7.5,0.75 C3.8,0.75 0.75,3.8 0.75,7.5 C0.75,11.2 3.8,14.25 7.5,14.25 C11.2,14.25 14.25,11.2 14.25,7.5 C14.25,3.8 11.2,0.75 7.5,0.75 L7.5,0.75 Z" id="Shape"></path>
                                        <path d="M11,7.75 L7.5,7.75 C7.35,7.75 7.25,7.65 7.25,7.5 L7.25,2.5 C7.25,2.35 7.35,2.25 7.5,2.25 C7.65,2.25 7.75,2.35 7.75,2.5 L7.75,7.25 L11,7.25 C11.15,7.25 11.25,7.35 11.25,7.5 C11.25,7.65 11.15,7.75 11,7.75 L11,7.75 Z" id="Shape"></path>
                                    </g>
                                </g>
                            </g>
                        </g>
                    </g>
                </g>
            </g>
        </g>
    </g>
</svg>