<?xml version="1.0" encoding="UTF-8"?>
<svg width="19px" height="14px" viewBox="0 0 19 14" version="1.1" xmlns="http://www.w3.org/2000/svg" xmlns:xlink="http://www.w3.org/1999/xlink">
    <!-- Generator: Sketch 42 (36781) - http://www.bohemiancoding.com/sketch -->
    <title>icon-take-off</title>
    <desc>Created with Sketch.</desc>
    <defs></defs>
    <g id="Page-1" stroke="none" stroke-width="1" fill="none" fill-rule="evenodd">
        <g id="Cart---Step-1" transform="translate(-424.000000, -334.000000)" fill="#373A3C">
            <g id="flight" transform="translate(298.000000, 279.000000)">
                <g id="Group-3" transform="translate(38.000000, 33.000000)">
                    <g id="one-way">
                        <g id="leg-1" transform="translate(88.000000, 0.000000)">
                            <g id="details" transform="translate(0.000000, 22.000000)">
                                <g id="depart">
                                    <g id="icon-take-off">
                                        <path d="M3.11111111,9.33333333 C0.996333333,9.33333333 0,9.25633333 0,8.55555556 C0,8.40388889 0,8.02044444 1.38366667,7.24811111 L0.0653333333,5.271 C-0.0373333333,5.117 -0.0171111111,4.91166667 0.114333333,4.78022222 L0.892111111,4.00244444 C1.01033333,3.88344444 1.19077778,3.85466667 1.34088889,3.92933333 L4.27777778,5.39855556 L6.43688889,4.319 C6.629,4.22255556 6.86233333,4.30111111 6.95877778,4.49244444 C7.05522222,4.68455556 6.97666667,4.91788889 6.78455556,5.01433333 L4.45122222,6.181 C4.34155556,6.23544444 4.21244444,6.23544444 4.10355556,6.181 L1.24366667,4.75066667 L0.889777778,5.10455556 L2.268,7.17266667 C2.32944444,7.26444444 2.34888889,7.37877778 2.32088889,7.48611111 C2.29288889,7.59344444 2.22133333,7.68288889 2.12255556,7.73422222 C1.666,7.96988889 1.20866667,8.25533333 0.953555556,8.456 C1.50266667,8.55555556 2.674,8.55555556 3.11111111,8.55555556 C5.71355556,8.55555556 17.8888889,3.78388889 17.8888889,2.33333333 C17.8888889,2.03233333 17.15,1.55555556 15.1666667,1.55555556 C13.1405556,1.55555556 10.6874444,2.67477778 10.6625556,2.68644444 C10.4673333,2.77588889 10.2363333,2.69033333 10.1461111,2.49588889 C10.0558889,2.30066667 10.1414444,2.06966667 10.3366667,1.97944444 C10.4432222,1.93122222 12.9678889,0.777777778 15.1666667,0.777777778 C18.326,0.777777778 18.6666667,1.86511111 18.6666667,2.33333333 C18.6666667,4.77944444 5.18155556,9.33333333 3.11111111,9.33333333 L3.11111111,9.33333333 Z" id="Shape"></path>
                                        <path d="M7.38888889,5.44444444 C7.32277778,5.44444444 7.25588889,5.42733333 7.196,5.39311111 L1.75155556,2.282 C1.64655556,2.22211111 1.575,2.11633333 1.55866667,1.99577778 C1.54233333,1.87522222 1.58355556,1.75466667 1.66911111,1.66911111 L3.22466667,0.113555556 C3.32655556,0.0124444444 3.47433333,-0.0248888889 3.61122222,0.0163333333 L11.389,2.34966667 C11.5367778,2.394 11.6441111,2.52077778 11.6635556,2.674 C11.6822222,2.82644444 11.6098889,2.97655556 11.4776667,3.05588889 L7.58877778,5.38922222 C7.52733333,5.42577778 7.45811111,5.44444444 7.38888889,5.44444444 L7.38888889,5.44444444 Z M2.57911111,1.85966667 L7.38344444,4.60522222 L10.3218889,2.842 L3.61122222,0.828333333 L2.57911111,1.85966667 L2.57911111,1.85966667 Z" id="Shape"></path>
                                        <path d="M15.1674444,2.72066667 C15.0655556,2.72066667 14.9636667,2.681 14.8882222,2.60244444 C14.7396667,2.44844444 14.742,2.205 14.8944444,2.05488889 C14.9317778,2.01911111 15.8215556,1.16666667 17.5,1.16666667 C17.7146667,1.16666667 17.8888889,1.34088889 17.8888889,1.55555556 C17.8888889,1.77022222 17.7146667,1.94444444 17.5,1.94444444 C16.1552222,1.94444444 15.4653333,2.58611111 15.4365556,2.61333333 C15.3611111,2.68488889 15.2638889,2.72066667 15.1674444,2.72066667 L15.1674444,2.72066667 Z" id="Shape"></path>
                                        <path d="M13.6111111,11.6666667 C13.4975556,11.6666667 13.3855556,11.6168889 13.3101111,11.5235556 L9.81011111,7.24577778 C9.674,7.08011111 9.69888889,6.83511111 9.86533333,6.69822222 C10.031,6.56211111 10.276,6.58622222 10.4128889,6.75344444 L13.7161111,10.7901111 L14.7147778,10.2907778 L13.6243333,5.92666667 C13.5722222,5.71822222 13.699,5.50744444 13.9074444,5.45533333 C14.1135556,5.40322222 14.3266667,5.52922222 14.3787778,5.73844444 L15.5454444,10.4051111 C15.5897778,10.5816667 15.505,10.7652222 15.3424444,10.8468889 L13.7868889,11.6246667 C13.7293333,11.6534444 13.6702222,11.6666667 13.6111111,11.6666667 L13.6111111,11.6666667 Z" id="Shape"></path>
                                        <path d="M8.94444444,14 L0.388888889,14 C0.174222222,14 0,13.8257778 0,13.6111111 C0,13.3964444 0.174222222,13.2222222 0.388888889,13.2222222 L8.94444444,13.2222222 C9.15911111,13.2222222 9.33333333,13.3964444 9.33333333,13.6111111 C9.33333333,13.8257778 9.15911111,14 8.94444444,14 L8.94444444,14 Z" id="Shape"></path>
                                    </g>
                                </g>
                            </g>
                        </g>
                    </g>
                </g>
            </g>
        </g>
    </g>
</svg>