<?xml version="1.0" encoding="UTF-8"?>
<svg width="17px" height="21px" viewBox="0 0 17 21" version="1.1" xmlns="http://www.w3.org/2000/svg" xmlns:xlink="http://www.w3.org/1999/xlink">
    <!-- Generator: Sketch 42 (36781) - http://www.bohemiancoding.com/sketch -->
    <title>rubbish-bin (1)</title>
    <desc>Created with Sketch.</desc>
    <defs></defs>
    <g id="Page-1" stroke="none" stroke-width="1" fill="none" fill-rule="evenodd">
        <g id="Cart---Step-1" transform="translate(-916.000000, -642.000000)" fill-rule="nonzero" fill="#B3B3B3">
            <g id="flight" transform="translate(298.000000, 279.000000)">
                <g id="Group-2" transform="translate(0.000000, 320.000000)">
                    <g id="remove" transform="translate(567.000000, 6.000000)">
                        <g id="rubbish-bin-(1)" transform="translate(51.000000, 37.000000)">
                            <g id="Capa_1">
                                <g id="Group">
                                    <path d="M15.5121533,2.47038581 L12.645199,2.47038581 L12.645199,0.65007871 C12.645199,0.283676129 12.342721,0 11.9677504,0 C11.9313654,0 11.9070995,0.0118683871 11.8952577,0.0237096774 C11.8831109,0.0118683871 11.858845,0 11.8467259,0 L5.10865253,0 L5.06039804,0 L5.01186623,0 C4.6368956,0 4.34656444,0.283676129 4.34656444,0.65007871 L4.34656444,2.4704129 L1.46749103,2.4704129 C0.644752039,2.4704129 0.00368841762,3.09678194 0.00368841762,3.90066194 L0.00368841762,4.94082581 L0.00368841762,6.24095613 L1.27391843,6.24095613 L1.27391843,19.5617303 C1.27391843,20.3656374 1.90286297,20.9801381 2.72560196,20.9801381 L14.2540701,20.9801381 C15.0768091,20.9801381 15.717845,20.3656374 15.717845,19.5617303 L15.717845,6.24095613 L16.975956,6.24095613 L16.975956,4.94082581 L16.975956,3.90066194 C16.975956,3.09678194 16.3346427,2.47038581 15.5121533,2.47038581 Z M5.67719576,1.30013032 L11.3024486,1.30013032 L11.3024486,2.47038581 L5.67719576,2.47038581 L5.67719576,1.30013032 L5.67719576,1.30013032 Z M14.3750946,19.5617574 C14.3750946,19.6447006 14.3387096,19.6799806 14.2540701,19.6799806 L2.72560196,19.6799806 C2.64096248,19.6799806 2.60457749,19.6446735 2.60457749,19.5617574 L2.60457749,6.24092903 L14.3750946,6.24092903 L14.3750946,19.5617574 L14.3750946,19.5617574 Z M15.6332055,4.94079871 L1.34643883,4.94079871 L1.34643883,3.90063484 C1.34643883,3.81790839 1.38282382,3.77051613 1.4674633,3.77051613 L15.5121533,3.77051613 C15.5968206,3.77051613 15.6332055,3.81790839 15.6332055,3.90063484 L15.6332055,4.94079871 Z" id="Shape"></path>
                                    <rect id="Rectangle-path" x="10.9274502" y="7.76574581" width="1.34275041" height="10.7558477"></rect>
                                    <rect id="Rectangle-path" x="7.83056607" y="7.76574581" width="1.34275041" height="10.7558477"></rect>
                                    <rect id="Rectangle-path" x="4.73365416" y="7.76574581" width="1.34275041" height="10.7558477"></rect>
                                </g>
                            </g>
                        </g>
                    </g>
                </g>
            </g>
        </g>
    </g>
</svg>